# xmcd CD database file
#
# Track frame offsets:
#	150
#	45431
#	74660
#	99152
#	122336
#
# Disc length: 2237 seconds
#
# Revision: 0
# Processed by: cddbd v1.5.2PL0 Copyright (c) Steve Scherf et al.
# Submitted via: CDex 1.70beta2
#
DISCID=3708bb05
DTITLE=SABIR MATEEN - DANIEL CARTER - Sound On A Sunday
DYEAR=2006
DGENRE=Jazz
TTITLE0=Sound On a Sunday
TTITLE1=Hand To Mouth To Hand
TTITLE2=Ain't It the Truth
TTITLE3=On the Full Moon
TTITLE4=Never Never Land
EXTD=YEAR: 2006
EXTT0=
EXTT1=
EXTT2=
EXTT3=
EXTT4=
PLAYORDER=
